<svg width="30" height="30" viewBox="0 0 30 30" fill="none" xmlns="http://www.w3.org/2000/svg">
<path d="M16.0004 13C20.7205 12.5709 24.3349 12.8811 28.1097 14.2412C28.1179 17.2508 27.8458 20.14 27.0004 22C24.4153 27.687 17.1673 29.5466 15.3949 29.9228L15.0004 30C14.9886 29.998 8.81138 28.9702 5.00329 24.9433C9.50256 24.8346 13.5345 24.4658 15.0004 23C16.0001 22 16.5001 17.5 16.0004 13Z" fill="#CEEAF1"/>
<path d="M15.4516 0.00585938C20.182 0.122603 26.9601 1.9889 27.0004 2C27.0024 2.01154 27.3182 3.86224 27.6137 6.4873C21.9885 5.50166 15.0506 5.69293 12.0004 7C12.7435 9.89639 12.8653 12.8873 13.0004 17C9.15839 17.3841 5.31645 17.1769 1.92814 16.1533C1.65421 9.82277 2.99945 2.00552 3.0004 2C3.04644 1.98731 10.2646 4.81907e-06 15.0004 0L15.4516 0.00585938Z" fill="#FFCDFD"/>
</svg>
